{
    "asset" : {
        "generator" : "Khronos glTF Blender I/O v3.4.49",
        "version" : "2.0"
    },
    "scene" : 0,
    "scenes" : [
        {
            "name" : "Scene",
            "nodes" : [
                0
            ]
        }
    ],
    "nodes" : [
        {
            "mesh" : 0,
            "name" : "crystal"
        }
    ],
    "meshes" : [
        {
            "name" : "Icosphere.009",
            "primitives" : [
                {
                    "attributes" : {
                        "POSITION" : 0,
                        "TEXCOORD_0" : 1,
                        "NORMAL" : 2
                    },
                    "indices" : 3
                }
            ]
        }
    ],
    "accessors" : [
        {
            "bufferView" : 0,
            "componentType" : 5126,
            "count" : 4128,
            "max" : [
                1.9617727994918823,
                3.754570722579956,
                1.956092357635498
            ],
            "min" : [
                -1.7210354804992676,
                0.04586142301559448,
                -1.9125748872756958
            ],
            "type" : "VEC3"
        },
        {
            "bufferView" : 1,
            "componentType" : 5126,
            "count" : 4128,
            "type" : "VEC2"
        },
        {
            "bufferView" : 2,
            "componentType" : 5126,
            "count" : 4128,
            "type" : "VEC3"
        },
        {
            "bufferView" : 3,
            "componentType" : 5123,
            "count" : 8016,
            "type" : "SCALAR"
        }
    ],
    "bufferViews" : [
        {
            "buffer" : 0,
            "byteLength" : 49536,
            "byteOffset" : 0,
            "target" : 34962
        },
        {
            "buffer" : 0,
            "byteLength" : 33024,
            "byteOffset" : 49536,
            "target" : 34962
        },
        {
            "buffer" : 0,
            "byteLength" : 49536,
            "byteOffset" : 82560,
            "target" : 34962
        },
        {
            "buffer" : 0,
            "byteLength" : 16032,
            "byteOffset" : 132096,
            "target" : 34963
        }
    ],
    "buffers" : [
        {
            "byteLength" : 148128,
            "uri" : "data:application/octet-stream;base64,"
        }
    ]
}
